<svg xmlns="http://www.w3.org/2000/svg" width="184" height="184" viewBox="0 0 184 184">
  <g id="logo" transform="translate(-178 -305)">
    <circle id="Ellipse_2" data-name="Ellipse 2" cx="92" cy="92" r="92" transform="translate(178 305)" fill="#a2a2a2"/>
    <g id="logo-2" data-name="logo" transform="translate(205.997 333)">
      <path id="Path_1" data-name="Path 1" d="M97.66,113.81C91.95,87.49,81.91,84,70.23,70.55,62.12,61.21,60.07,57.08,55,46.98s-8.4-16.74-8.4-16.74L65.87,19.38S77.88,46.94,88.74,57.8c5.46,5.46,23.05,22.9,35.2,56.04,1.15,3.14,0,11.75-13.21,9.91C99.81,122.22,98.54,117.84,97.66,113.81Z" fill="#ffdaa4"/>
      <path id="Path_2" data-name="Path 2" d="M68.82,25.88c-2,.47-5.1,1.37-5.21,1.3L61.4,23.04l-5.39,2.62-8.04,7.33c1.43,2.85,3.9,7.77,7.03,14,1.68,3.34,3.52,6.85,5.45,10.28a20.276,20.276,0,0,1,5.53-13.06c3.1-3.15,6.64-8.8,6.64-10.84-1.28-2.81-2.56-5.1-3.8-7.49Z" fill="#eaab57"/>
      <path id="Path_3" data-name="Path 3" d="M29.61,65.92c.81.37,2.95,1.38,4.14-.09,3.9-4.79,14.18-24.72,19.93-26.1,1.84-.44,3.71-.74,5.52-1.28,7.65-2.27,10.57-6.13,11.81-8.34.72-1.28.76-2.42-.4-4.48C69.32,23.33,60.33,4.98,60.33,4.98a13.175,13.175,0,0,0-6.99.28,55.349,55.349,0,0,0-10.86,6.29c-2.72,2.04-1.88,4.11-7.93,6.29-7.13,2.58-19.72,5.47-25.88,6.92-3.59.85-4.39,1.94-4.49,4.97C4,35.61,8.31,56.34,29.61,65.92Z" fill="#f44336"/>
      <path id="Path_4" data-name="Path 4" d="M52,5.01c-1.95.68-37.28,16.67-43.54,18.95-3.47,1.26-4.64.74-4.73,3.78-.16,4.94,3.34,22.43,17.02,32.92C19.13,58.44,9.39,48.99,7.44,30.76a3.687,3.687,0,0,1,2.78-4.15c7.16-1.55,29.32-6.53,42.2-12.57,5.27-2.47,9.55-6.39,7.93-9.04C59.57,3.73,56,3.6,52,5.01Z" fill="#c62828"/>
      <path id="Path_5" data-name="Path 5" d="M24.27,44.43c-4.77-6.22-6.18-19.62-6.18-19.62s-7.15-1.4-9.96-.48c-3.51,1.15-3.83.57-3.91,4.02-.13,5.86,2.35,26.94,25.4,37.56.81.37,2.95,1.38,4.14-.09s3.73-5.55,5.82-8.9c-5.67-2.44-9.93-5.47-15.31-12.49Z" fill="#e0e0e0"/>
      <path id="Path_6" data-name="Path 6" d="M10.21,26.6c1.41-.31,7.88-1.79,7.88-1.79l-3.62-3.32s-3.91,1.3-7.32,2.49c-2.88,1-3.43,1.2-3.42,3.76.01,4.94,2.5,22.15,17.02,32.92C19.13,58.44,9.39,48.99,7.44,30.76a3.691,3.691,0,0,1,2.77-4.16Z" fill="#bdbdbd"/>
      <ellipse id="Ellipse_1" data-name="Ellipse 1" cx="10.43" cy="2.25" rx="10.43" ry="2.25" transform="translate(38.505 12.385) rotate(-23.717)" fill="#ffcc80"/>
      <path id="Path_7" data-name="Path 7" d="M50.13,17.86c1.78.34,2.89,2.09,3.73,3.7a74.773,74.773,0,0,1,5.04,12.3,1.307,1.307,0,0,1,.08.75,1.286,1.286,0,0,1-.76.68c-1.85.91-3.97,1.72-5.94,1.1-2.48-.78-3.75-3.45-4.75-5.84-1.07-2.58-2.14-5.17-3.21-7.75-1.47-3.55,2.53-5.57,5.81-4.94Z" fill="#ff5450"/>
    </g>
  </g>
</svg>
